<?xml version="1.0" standalone="no"?><!DOCTYPE svg PUBLIC "-//W3C//DTD SVG 1.1//EN" "http://www.w3.org/Graphics/SVG/1.1/DTD/svg11.dtd"><svg t="1577782836787" class="icon" viewBox="0 0 1024 1024" version="1.1" xmlns="http://www.w3.org/2000/svg" p-id="540" xmlns:xlink="http://www.w3.org/1999/xlink" width="200" height="200"><defs><style type="text/css"></style></defs><path d="M688.355556 898.844444c-5.688889 5.688889-17.066667 5.688889-22.755556 11.377778-68.266667 28.444444-153.6 45.511111-256 45.511111-51.2 0-102.4-5.688889-147.911111-11.377778-45.511111-11.377778-85.333333-22.755556-113.777778-34.133333-28.444444-11.377778-56.888889-28.444444-73.955556-45.511111-17.066667-17.066667-28.444444-34.133333-28.444444-51.2 0-119.466667 0-119.466667 0-119.466667C56.888889 694.044444 56.888889 694.044444 62.577778 699.733333c34.133333 28.444444 85.333333 51.2 142.222222 62.577778 62.577778 17.066667 130.844444 22.755556 199.111111 22.755556 73.955556 0 142.222222-5.688889 204.8-22.755556 11.377778 0 17.066667-5.688889 22.755556-5.688889-22.755556-28.444444-22.755556-28.444444-22.755556-28.444444-56.888889 17.066667-125.155556 28.444444-204.8 28.444444-51.2 0-102.4-5.688889-147.911111-11.377778-45.511111-5.688889-85.333333-22.755556-113.777778-34.133333-28.444444-11.377778-56.888889-28.444444-73.955556-45.511111C56.888889 637.155556 51.2 625.777778 51.2 608.711111c0-119.466667 0-119.466667 0-119.466667C56.888889 489.244444 56.888889 494.933333 62.577778 494.933333c34.133333 28.444444 85.333333 51.2 142.222222 62.577778 62.577778 17.066667 130.844444 22.755556 199.111111 22.755556 34.133333 0 68.266667 0 102.4-5.688889C500.622222 568.888889 500.622222 557.511111 494.933333 540.444444c-28.444444 0-56.888889 5.688889-91.022222 5.688889-51.2 0-102.4-5.688889-147.911111-11.377778C216.177778 523.377778 176.355556 512 147.911111 500.622222 119.466667 489.244444 96.711111 472.177778 73.955556 455.111111 56.888889 438.044444 51.2 420.977778 51.2 403.911111c0-119.466667 0-119.466667 0-119.466667C56.888889 290.133333 56.888889 290.133333 62.577778 295.822222 96.711111 318.577778 147.911111 341.333333 204.8 358.4c62.577778 17.066667 130.844444 22.755556 199.111111 22.755556 73.955556 0 142.222222-5.688889 204.8-22.755556 62.577778-17.066667 108.088889-34.133333 142.222222-62.577778C756.622222 290.133333 762.311111 284.444444 768 284.444444c0 119.466667 0 119.466667 0 119.466667 0 17.066667-5.688889 28.444444-17.066667 45.511111 56.888889 0 56.888889 0 56.888889 0 0-227.555556 0-227.555556 0-227.555556 0-34.133333-17.066667-62.577778-51.2-91.022222-34.133333-28.444444-85.333333-51.2-147.911111-62.577778C546.133333 51.2 477.866667 39.822222 409.6 39.822222c-73.955556 0-142.222222 5.688889-204.8 22.755556C142.222222 79.644444 96.711111 102.4 62.577778 130.844444c-22.755556 17.066667-39.822222 39.822222-45.511111 56.888889-5.688889 0-5.688889 5.688889-5.688889 17.066667 0 5.688889 0 5.688889 0 11.377778 0 0 0 5.688889 0 5.688889 0 580.266667 0 580.266667 0 580.266667 0 34.133333 17.066667 62.577778 51.2 91.022222 34.133333 28.444444 85.333333 51.2 142.222222 62.577778 62.577778 17.066667 130.844444 22.755556 199.111111 22.755556 73.955556 0 142.222222-5.688889 204.8-22.755556 28.444444-5.688889 51.2-17.066667 73.955556-22.755556L682.666667 898.844444zM73.955556 170.666667c17.066667-17.066667 39.822222-34.133333 73.955556-45.511111 28.444444-11.377778 68.266667-22.755556 113.777778-34.133333 45.511111-5.688889 96.711111-11.377778 147.911111-11.377778 102.4 0 187.733333 17.066667 256 45.511111 62.577778 28.444444 96.711111 56.888889 102.4 91.022222-5.688889 34.133333-39.822222 62.577778-102.4 91.022222C597.333333 329.955556 512 347.022222 409.6 347.022222 358.4 347.022222 307.2 341.333333 261.688889 335.644444c-45.511111-11.377778-85.333333-22.755556-113.777778-34.133333C119.466667 284.444444 96.711111 267.377778 73.955556 250.311111 62.577778 238.933333 56.888889 227.555556 51.2 210.488889 56.888889 199.111111 62.577778 182.044444 73.955556 170.666667L73.955556 170.666667z" p-id="541" fill="#515151"></path><path d="M955.733333 551.822222c-164.977778 227.555556-164.977778 227.555556-164.977778 227.555556-5.688889 5.688889-5.688889 5.688889-5.688889 5.688889-5.688889-5.688889-5.688889-5.688889-5.688889-5.688889-164.977778-227.555556-164.977778-227.555556-164.977778-227.555556C955.733333 551.822222 955.733333 551.822222 955.733333 551.822222L955.733333 551.822222zM989.866667 506.311111c-403.911111 0-403.911111 0-403.911111 0-11.377778 0-17.066667 5.688889-22.755556 17.066667-5.688889 11.377778-5.688889 17.066667 0 28.444444 182.044444 250.311111 182.044444 250.311111 182.044444 250.311111 0 147.911111 0 147.911111 0 147.911111 79.644444-51.2 79.644444-51.2 79.644444-51.2 0-96.711111 0-96.711111 0-96.711111 182.044444-250.311111 182.044444-250.311111 182.044444-250.311111 5.688889-11.377778 5.688889-17.066667 0-28.444444C1006.933333 512 1001.244444 506.311111 989.866667 506.311111L989.866667 506.311111z" p-id="542" fill="#515151"></path></svg>